# xmcd
#
# Track frame offsets:
#	150
#	21916
#	37374
#	56270
#	77646
#	96100
#	114409
#	140227
#	157918
#	185811
#
# Disc length: 2737 seconds
#
# Revision: 1
# Processed by: cddbd v1.5.2PL0 Copyright (c) Steve Scherf et al.
# Submitted via: audiograbber 1.83.01
#
DISCID=860aaf0a
DTITLE=The Wynntown Marshalls - The End Of The Golden Age
DYEAR=2015
DGENRE=Country
TTITLE0=There Was A Time
TTITLE1=Dead Sunflowers
TTITLE2=Being Lazy
TTITLE3=Red Clay Hill
TTITLE4=Idaho
TTITLE5=Better Than Yesterday
TTITLE6=The Girl On The Hill
TTITLE7=Metagama
TTITLE8=Moby Doll
TTITLE9=The End Of The Golden Age
EXTD=
EXTT0=
EXTT1=
EXTT2=
EXTT3=
EXTT4=
EXTT5=
EXTT6=
EXTT7=
EXTT8=
EXTT9=
PLAYORDER=
